<?xml version="1.0" encoding="UTF-8" standalone="no"?>
<!DOCTYPE svg PUBLIC "-//W3C//DTD SVG 1.1//EN" "http://www.w3.org/Graphics/SVG/1.1/DTD/svg11.dtd">
<svg width="100%" height="100%" viewBox="0 0 89 25" version="1.1" xmlns="http://www.w3.org/2000/svg" xmlns:xlink="http://www.w3.org/1999/xlink" xml:space="preserve" xmlns:serif="http://www.serif.com/" style="fill-rule:evenodd;clip-rule:evenodd;stroke-linejoin:round;stroke-miterlimit:2;">
    <g transform="matrix(0.195421,0,0,0.195421,3.29701,1.56483)">
        <g transform="matrix(1.07194,0,0,1.07194,147.416,74.6873)">
            <path d="M0,-34.946L23.938,-17.473L0,0L0,-34.946Z" style="fill:white;"/>
        </g>
        <g transform="matrix(1.07194,0,0,1.07194,231.618,115.4)">
            <path d="M0,-113.395L20.851,-113.395L20.851,-99.992C30.919,-108.407 43.882,-113.473 58.029,-113.473C67.233,-113.473 75.936,-111.326 83.666,-107.512L71.384,-90.209C67.238,-91.803 62.736,-92.679 58.029,-92.679C39.266,-92.679 23.746,-78.794 21.182,-60.739C20.891,-58.686 20.851,-56.907 20.851,-54.856L20.851,0.078L0,0.078L0,-113.395Z" style="fill:white;"/>
        </g>
        <g transform="matrix(1.07194,0,0,1.07194,106.844,37.7252)">
            <path d="M0,34.018C-1.811,38.51 -3.454,42.121 -5.929,46.338C-7.01,48.182 -8.19,49.961 -9.462,51.668C-20.022,65.844 -36.893,75.028 -55.904,75.028C-87.885,75.028 -113.824,49.045 -113.824,17.009C-113.824,-15.027 -87.885,-41.011 -55.904,-41.011C-54.89,-41.011 -53.884,-40.985 -52.883,-40.934L-52.855,-40.932L-52.842,-40.932L-52.794,-40.929L-52.24,-40.898L-52.227,-40.896C-51.642,-40.859 -51.059,-40.814 -50.479,-40.76L-50.372,-40.75L-49.991,-40.712L-49.669,-40.679L-49.297,-40.638L-49.22,-40.629L-49.1,-40.616C-47.555,-40.434 -46.029,-40.192 -44.524,-39.892L-44.483,-39.883L-43.966,-39.776L-43.917,-39.766L-43.915,-39.765L-43.458,-39.667L-43.21,-39.613C-42.506,-39.455 -41.806,-39.284 -41.111,-39.1L-40.921,-39.049L-40.537,-38.945L-40.475,-38.929L-40.398,-38.907L-40.046,-38.808L-40.013,-38.799L-39.766,-38.728L-39.694,-38.707L-39.346,-38.604L-39.345,-38.604L-38.813,-38.442L-38.771,-38.429L-38.299,-38.28L-38.227,-38.257L-38.156,-38.234L-37.702,-38.085L-37.67,-38.076L-37.607,-38.055C-37.262,-37.939 -36.918,-37.821 -36.577,-37.699L-36.566,-37.696L-36.528,-37.683L-36.063,-37.514L-35.985,-37.486L-35.553,-37.325L-35.472,-37.295L-35.396,-37.265L-34.966,-37.101L-34.928,-37.086L-34.878,-37.066L-34.542,-36.934L-34.494,-36.915L-34.247,-36.815L-34.206,-36.798L-33.871,-36.662L-33.85,-36.653L-33.538,-36.523L-33.433,-36.48L-33.25,-36.401L-33.205,-36.383L-32.873,-36.238L-32.782,-36.199L-32.742,-36.182L-32.292,-35.982L-32.252,-35.965L-32.204,-35.943C-28.561,-34.306 -25.131,-32.338 -21.894,-29.978C-21.108,-29.405 -20.334,-28.809 -19.571,-28.189L-19.568,-28.187L-19.413,-28.067C-17.934,-26.93 -16.817,-25.924 -15.48,-24.602L-15.052,-24.173L-27.336,-6.845C-34.115,-14.896 -44.257,-20.096 -55.596,-20.096C-64.623,-20.096 -73.012,-16.893 -79.497,-11.49C-87.674,-4.676 -92.861,5.606 -92.861,17.009C-92.861,27.596 -88.341,37.251 -81.149,44.019C-74.453,50.323 -65.437,54.112 -55.596,54.112C-44.326,54.112 -34.233,48.975 -27.455,41.007C-23.289,36.112 -20.275,29.137 -17.475,21.581C-14.801,14.362 -12.348,7.154 -9.464,0C-7.653,-4.492 -6.01,-8.103 -3.535,-12.32C-2.455,-14.165 -1.273,-15.943 -0.003,-17.65C10.558,-31.827 27.429,-41.011 46.44,-41.011C78.42,-41.011 104.359,-15.027 104.359,17.01C104.359,49.045 78.42,75.029 46.44,75.029C45.426,75.029 44.419,75.003 43.419,74.952L43.39,74.95L43.377,74.95L43.33,74.947L42.776,74.915L42.762,74.914C42.178,74.877 41.594,74.831 41.014,74.778L40.908,74.768L40.526,74.73L40.205,74.697L39.833,74.656L39.636,74.633C38.091,74.452 36.565,74.21 35.06,73.91L35.019,73.901L34.501,73.794L34.452,73.784L34.45,73.784L33.994,73.685L33.746,73.63C33.041,73.473 32.341,73.301 31.647,73.119L31.457,73.067L31.073,72.963L31.011,72.947L30.934,72.925L30.582,72.827L30.549,72.817L30.302,72.746L30.23,72.725L29.882,72.622L29.881,72.622L29.349,72.459L29.306,72.447L28.834,72.297L28.762,72.275L28.691,72.252L28.237,72.103L28.206,72.093L28.143,72.073C27.797,71.957 27.454,71.839 27.113,71.717L27.101,71.713L27.063,71.701L26.598,71.532L26.521,71.504L26.089,71.343L26.007,71.313L25.931,71.283L25.502,71.119L25.464,71.104L25.414,71.084L25.077,70.953L25.029,70.933L24.783,70.833L24.741,70.816L24.407,70.68L24.386,70.671L24.073,70.54L23.969,70.497L23.786,70.419L23.741,70.401L23.409,70.256L23.317,70.217L23.278,70.199L22.827,69.999L22.788,69.983L22.739,69.96C19.096,68.325 15.666,66.356 12.43,63.997C11.644,63.423 10.87,62.827 10.107,62.207L10.104,62.205L9.948,62.084C8.47,60.948 7.353,59.942 6.016,58.621L5.587,58.192L17.872,40.863C24.65,48.914 34.793,54.114 46.131,54.114C55.158,54.114 63.547,50.911 70.032,45.508C78.209,38.694 83.396,28.412 83.396,17.01C83.396,6.422 78.877,-3.233 71.686,-10.002C64.989,-16.305 55.973,-20.095 46.131,-20.095C34.861,-20.095 24.769,-14.957 17.99,-6.989C14.203,-2.538 11.367,3.632 8.779,10.395C5.769,18.259 3.156,26.187 0,34.018" style="fill:white;"/>
        </g>
        <g transform="matrix(1.07194,0,0,1.07194,374.658,118.151)">
            <path d="M0,-116.041C32.044,-116.041 58.021,-90.064 58.021,-58.02C58.021,-54.461 57.698,-50.978 57.085,-47.595L-19.675,-47.595L-5.126,-68.445L35.618,-68.445C31.113,-83.862 16.873,-95.125 0,-95.125C-20.492,-95.125 -37.105,-78.513 -37.105,-58.02C-37.105,-37.528 -20.492,-20.915 0,-20.915C10.345,-20.915 19.699,-25.149 26.428,-31.978L44.993,-21.391C34.355,-8.337 18.152,0 0,0C-32.044,0 -58.021,-25.977 -58.021,-58.02C-58.021,-90.064 -32.044,-116.041 0,-116.041" style="fill:white;"/>
        </g>
    </g>
</svg>
